<svg xmlns="http://www.w3.org/2000/svg" version="1.1" xmlns:xlink="http://www.w3.org/1999/xlink" xmlns:svgjs="http://svgjs.dev/svgjs" width="1000" height="1000" viewBox="0 0 1000 1000"><rect width="1000" height="1000" fill="#010536"></rect><g transform="matrix(0.7,0,0,0.7,149.57575757575756,376.1027174402381)"><svg viewBox="0 0 396 140" data-background-color="#010536" preserveAspectRatio="xMidYMid meet" height="353" width="1000" xmlns="http://www.w3.org/2000/svg" xmlns:xlink="http://www.w3.org/1999/xlink"><g id="tight-bounds" transform="matrix(1,0,0,1,0.2400000000000091,0.19676065708887336)"><svg viewBox="0 0 395.52 139.60647868582225" height="139.60647868582225" width="395.52"><g><svg viewBox="0 0 395.52 139.60647868582225" height="139.60647868582225" width="395.52"><g><svg viewBox="0 0 395.52 139.60647868582225" height="139.60647868582225" width="395.52"><g id="textblocktransform"><svg viewBox="0 0 395.52 139.60647868582225" height="139.60647868582225" width="395.52" id="textblock"><g><svg viewBox="0 0 395.52 84.81351302785264" height="84.81351302785264" width="395.52"><g transform="matrix(1,0,0,1,0,0)"><svg width="395.52" viewBox="-0.05000000447034836 -35.400001525878906 166.94000244140625 35.80000305175781" height="84.81351302785264" data-palette-color="#fbfbf8"><path d="M31.4 0L27.55-8.75 8.95-8.75 5.1 0-0.05 0 15.8-35 20.75-35 36.65 0 31.4 0ZM10.7-12.75L25.8-12.75 18.25-29.9 10.7-12.75ZM65.6-6.3L65.6-17.7 70.4-17.7 70.4-4.05Q67.8-1.9 64.35-0.75 60.9 0.4 57.15 0.4L57.15 0.4Q51.85 0.4 47.6-1.93 43.35-4.25 40.92-8.33 38.5-12.4 38.5-17.5L38.5-17.5Q38.5-22.6 40.92-26.7 43.35-30.8 47.62-33.1 51.9-35.4 57.25-35.4L57.25-35.4Q61.45-35.4 64.87-34.02 68.3-32.65 70.7-30L70.7-30 67.6-26.9Q63.4-30.95 57.45-30.95L57.45-30.95Q53.45-30.95 50.27-29.23 47.1-27.5 45.3-24.43 43.5-21.35 43.5-17.5L43.5-17.5Q43.5-13.7 45.3-10.63 47.1-7.55 50.27-5.8 53.45-4.05 57.4-4.05L57.4-4.05Q62.1-4.05 65.6-6.3L65.6-6.3ZM79.95 0L79.95-35 84.95-35 84.95-4.35 103.9-4.35 103.9 0 79.95 0ZM114.64-4.35L135.04-4.35 135.04 0 109.64 0 109.64-35 134.34-35 134.34-30.65 114.64-30.65 114.64-19.9 132.19-19.9 132.19-15.65 114.64-15.65 114.64-4.35ZM153.34 0.4Q149.39 0.4 145.72-0.83 142.04-2.05 139.94-4L139.94-4 141.79-7.9Q143.79-6.1 146.92-4.98 150.04-3.85 153.34-3.85L153.34-3.85Q157.69-3.85 159.84-5.33 161.99-6.8 161.99-9.25L161.99-9.25Q161.99-11.05 160.82-12.18 159.64-13.3 157.92-13.9 156.19-14.5 153.04-15.25L153.04-15.25Q149.09-16.2 146.67-17.15 144.24-18.1 142.52-20.08 140.79-22.05 140.79-25.4L140.79-25.4Q140.79-28.2 142.27-30.45 143.74-32.7 146.74-34.05 149.74-35.4 154.19-35.4L154.19-35.4Q157.29-35.4 160.29-34.6 163.29-33.8 165.44-32.3L165.44-32.3 163.79-28.3Q161.59-29.7 159.09-30.43 156.59-31.15 154.19-31.15L154.19-31.15Q149.94-31.15 147.82-29.6 145.69-28.05 145.69-25.6L145.69-25.6Q145.69-23.8 146.89-22.68 148.09-21.55 149.87-20.93 151.64-20.3 154.69-19.6L154.69-19.6Q158.64-18.65 161.04-17.7 163.44-16.75 165.17-14.8 166.89-12.85 166.89-9.55L166.89-9.55Q166.89-6.8 165.39-4.53 163.89-2.25 160.84-0.93 157.79 0.4 153.34 0.4L153.34 0.4Z" opacity="1" transform="matrix(1,0,0,1,0,0)" fill="#fbfbf8" class="undefined-text-0" data-fill-palette-color="primary" id="text-0"></path></svg></g></svg></g><g transform="matrix(1,0,0,1,75.54432000000001,104.83594792941598)"><svg viewBox="0 0 244.43135999999996 34.770530756406295" height="34.770530756406295" width="244.43135999999996"><g transform="matrix(1,0,0,1,0,0)"><svg width="244.43135999999996" viewBox="4.699999809265137 -35.38999938964844 327.4700012207031 46.59000015258789" height="34.770530756406295" data-palette-color="#fbfbf8"><path d="M7.03-2.15L22.88-2.15 22.88 0 4.7 0 4.7-33.27 22.88-33.27 22.88-31.12 7.03-31.12 7.03-18.53 21.99-18.53 21.99-16.41 7.03-16.41 7.03-2.15ZM49.31-16.18L49.31 0 47.09 0 47.09-16.03Q47.09-19.74 45.54-21.45 43.98-23.15 40.64-23.15L40.64-23.15Q36.2-23.15 34.15-20.9 32.1-18.66 32.1-13.65L32.1-13.65 32.1 0 29.85 0 29.85-24.72 31.75-24.72 32.18-21.33 32.33-21.33Q34.7-25.2 40.9-25.2L40.9-25.2Q49.31-25.2 49.31-16.18L49.31-16.18ZM67.44-1.16L63.39-1.16Q56.59-1.16 56.59 4.2L56.59 4.2Q56.59 9.28 64.18 9.28L64.18 9.28Q73.91 9.28 73.91 3.08L73.91 3.08Q73.91 0.83 72.38-0.16 70.85-1.16 67.44-1.16L67.44-1.16ZM68.7-24.72L76.61-24.72 76.61-23.15 71.48-22.85Q73.53-20.32 73.53-17.24L73.53-17.24Q73.53-13.68 71.15-11.45 68.78-9.23 64.78-9.23L64.78-9.23Q63.09-9.23 62.41-9.38L62.41-9.38Q59.65-7.94 59.65-5.69L59.65-5.69Q59.65-4.47 60.56-3.94 61.47-3.41 63.57-3.41L63.57-3.41 67.89-3.41Q71.94-3.41 74.07-1.77 76.21-0.13 76.21 3.03L76.21 3.03Q76.21 6.95 73.04 9.07 69.86 11.2 63.97 11.2L63.97 11.2Q59.35 11.2 56.77 9.4 54.19 7.61 54.19 4.4L54.19 4.4Q54.19 1.87 55.76 0.18 57.33-1.52 60.08-2.15L60.08-2.15Q58.94-2.6 58.27-3.5 57.6-4.4 57.6-5.51L57.6-5.51Q57.6-7.99 60.79-9.88L60.79-9.88Q58.61-10.77 57.41-12.66 56.21-14.56 56.21-17.01L56.21-17.01Q56.21-20.73 58.58-22.97 60.94-25.2 64.91-25.2L64.91-25.2Q67.41-25.2 68.7-24.72L68.7-24.72ZM71.25-17.19Q71.25-20.25 69.59-21.84 67.92-23.43 64.9-23.43 61.88-23.43 60.18-21.74 58.49-20.05 58.49-17.11 58.49-14.18 60.21-12.59 61.93-11 64.95-11 67.97-11 69.61-12.56 71.25-14.13 71.25-17.19ZM98.35-16.46L98.35 0 96.71 0 96.12-3.92 95.95-3.92Q94.08-1.52 92.13-0.53 90.18 0.46 87.45 0.46L87.45 0.46Q83.84 0.46 81.8-1.42 79.77-3.29 79.77-6.57L79.77-6.57Q79.77-10.21 82.8-12.21 85.84-14.21 91.52-14.31L91.52-14.31 96.23-14.43 96.23-16.08Q96.23-19.67 94.76-21.44 93.29-23.21 90.01-23.21 86.72-23.21 83.06-21.28L83.06-21.28 82.2-23.26Q86.29-25.15 90.32-25.15 94.36-25.15 96.35-23.03 98.35-20.9 98.35-16.46L98.35-16.46ZM82.17-6.47L82.17-6.47Q82.17-4.17 83.6-2.88 85.03-1.59 87.61-1.59L87.61-1.59Q91.52-1.59 93.82-3.85 96.12-6.12 96.12-10.14L96.12-10.14 96.12-12.59 91.8-12.39Q86.6-12.16 84.38-10.78 82.17-9.4 82.17-6.47ZM116.47-1.16L112.43-1.16Q105.63-1.16 105.63 4.2L105.63 4.2Q105.63 9.28 113.21 9.28L113.21 9.28Q122.94 9.28 122.94 3.08L122.94 3.08Q122.94 0.83 121.41-0.16 119.88-1.16 116.47-1.16L116.47-1.16ZM117.74-24.72L125.65-24.72 125.65-23.15 120.52-22.85Q122.56-20.32 122.56-17.24L122.56-17.24Q122.56-13.68 120.19-11.45 117.81-9.23 113.82-9.23L113.82-9.23Q112.12-9.23 111.44-9.38L111.44-9.38Q108.69-7.94 108.69-5.69L108.69-5.69Q108.69-4.47 109.6-3.94 110.51-3.41 112.6-3.41L112.6-3.41 116.93-3.41Q120.97-3.41 123.11-1.77 125.24-0.13 125.24 3.03L125.24 3.03Q125.24 6.95 122.07 9.07 118.9 11.2 113.01 11.2L113.01 11.2Q108.38 11.2 105.8 9.4 103.23 7.61 103.23 4.4L103.23 4.4Q103.23 1.87 104.79 0.18 106.36-1.52 109.12-2.15L109.12-2.15Q107.98-2.6 107.31-3.5 106.64-4.4 106.64-5.51L106.64-5.51Q106.64-7.99 109.82-9.88L109.82-9.88Q107.65-10.77 106.45-12.66 105.25-14.56 105.25-17.01L105.25-17.01Q105.25-20.73 107.61-22.97 109.97-25.2 113.94-25.2L113.94-25.2Q116.45-25.2 117.74-24.72L117.74-24.72ZM120.29-17.19Q120.29-20.25 118.62-21.84 116.95-23.43 113.93-23.43 110.91-23.43 109.22-21.74 107.52-20.05 107.52-17.11 107.52-14.18 109.24-12.59 110.96-11 113.98-11 117-11 118.65-12.56 120.29-14.13 120.29-17.19ZM131.79-14.05L147.08-14.05Q147.08-18.33 145.22-20.77 143.36-23.21 139.9-23.21 136.44-23.21 134.29-20.84 132.14-18.48 131.79-14.05L131.79-14.05ZM140.71 0.46L140.71 0.46Q135.33 0.46 132.29-2.86L132.29-2.86Q129.28-6.22 129.28-12.16 129.28-18.1 132.2-21.65 135.12-25.2 140.05-25.2L140.05-25.2Q144.43-25.2 146.93-22.14L146.93-22.14Q149.46-19.14 149.46-13.88L149.46-13.88 149.46-12.06 131.66-12.06Q131.69-6.98 134.02-4.28 136.36-1.59 140.71-1.59L140.71-1.59Q142.76-1.59 144.4-1.88 146.04-2.17 148.5-3.16L148.5-3.16 148.5-1.11Q146.47-0.23 144.68 0.11 142.88 0.46 140.71 0.46ZM157.67 0.46L157.67 0.46Q155.85 0.46 155.85-1.77 155.85-3.99 157.67-3.99L157.67-3.99Q159.54-3.99 159.54-1.77 159.54 0.46 157.67 0.46ZM183.7-2.15L199.55-2.15 199.55 0 181.38 0 181.38-33.27 199.55-33.27 199.55-31.12 183.7-31.12 183.7-18.53 198.67-18.53 198.67-16.41 183.7-16.41 183.7-2.15ZM206.52-35.39L208.77-35.39 208.77 0 206.52 0 206.52-35.39ZM218.12-14.05L233.42-14.05Q233.42-18.33 231.56-20.77 229.7-23.21 226.24-23.21 222.78-23.21 220.63-20.84 218.48-18.48 218.12-14.05L218.12-14.05ZM227.05 0.46L227.05 0.46Q221.66 0.46 218.63-2.86L218.63-2.86Q215.62-6.22 215.62-12.16 215.62-18.1 218.54-21.65 221.46-25.2 226.39-25.2L226.39-25.2Q230.76-25.2 233.27-22.14L233.27-22.14Q235.79-19.14 235.79-13.88L235.79-13.88 235.79-12.06 218-12.06Q218.02-6.98 220.36-4.28 222.7-1.59 227.05-1.59L227.05-1.59Q229.1-1.59 230.74-1.88 232.38-2.17 234.83-3.16L234.83-3.16 234.83-1.11Q232.81-0.23 231.02 0.11 229.22 0.46 227.05 0.46ZM258.95-24.72L249.39 0 247.12 0 237.56-24.72 239.89-24.72 246.28-7.91Q247.52-4.75 248.18-2.28L248.18-2.28 248.33-2.28Q249.29-5.36 250.23-7.96L250.23-7.96 256.62-24.72 258.95-24.72ZM279.75-16.46L279.75 0 278.1 0 277.52-3.92 277.35-3.92Q275.48-1.52 273.53-0.53 271.58 0.46 268.85 0.46L268.85 0.46Q265.24 0.46 263.2-1.42 261.17-3.29 261.17-6.57L261.17-6.57Q261.17-10.21 264.2-12.21 267.23-14.21 272.92-14.31L272.92-14.31 277.62-14.43 277.62-16.08Q277.62-19.67 276.16-21.44 274.69-23.21 271.41-23.21 268.12-23.21 264.45-21.28L264.45-21.28 263.59-23.26Q267.69-25.15 271.72-25.15 275.75-25.15 277.75-23.03 279.75-20.9 279.75-16.46L279.75-16.46ZM263.57-6.47L263.57-6.47Q263.57-4.17 265-2.88 266.43-1.59 269-1.59L269-1.59Q272.92-1.59 275.22-3.85 277.52-6.12 277.52-10.14L277.52-10.14 277.52-12.59 273.2-12.39Q267.99-12.16 265.78-10.78 263.57-9.4 263.57-6.47ZM290.13-22.78L290.13-7.13Q290.13-4.27 291.13-2.91 292.13-1.54 294.28-1.54 296.43-1.54 298.02-1.92L298.02-1.92 298.02-0.1Q296.43 0.46 294.23 0.46L294.23 0.46Q290.97 0.46 289.4-1.31 287.83-3.08 287.83-6.8L287.83-6.8 287.83-22.78 284.17-22.78 284.17-24.09 287.83-25.13 288.97-30.71 290.13-30.71 290.13-24.72 297.39-24.72 297.39-22.78 290.13-22.78ZM304.41-14.05L319.71-14.05Q319.71-18.33 317.85-20.77 315.99-23.21 312.53-23.21 309.07-23.21 306.92-20.84 304.77-18.48 304.41-14.05L304.41-14.05ZM313.34 0.46L313.34 0.46Q307.95 0.46 304.92-2.86L304.92-2.86Q301.91-6.22 301.91-12.16 301.91-18.1 304.83-21.65 307.75-25.2 312.68-25.2L312.68-25.2Q317.05-25.2 319.56-22.14L319.56-22.14Q322.08-19.14 322.08-13.88L322.08-13.88 322.08-12.06 304.29-12.06Q304.31-6.98 306.65-4.28 308.99-1.59 313.34-1.59L313.34-1.59Q315.38-1.59 317.03-1.88 318.67-2.17 321.12-3.16L321.12-3.16 321.12-1.11Q319.1-0.23 317.31 0.11 315.51 0.46 313.34 0.46ZM330.3 0.46L330.3 0.46Q328.48 0.46 328.48-1.77 328.48-3.99 330.3-3.99L330.3-3.99Q332.17-3.99 332.17-1.77 332.17 0.46 330.3 0.46Z" opacity="1" transform="matrix(1,0,0,1,0,0)" fill="#fbfbf8" class="undefined-text-1" data-fill-palette-color="secondary" id="text-1"></path></svg></g></svg></g></svg></g></svg></g><g></g></svg></g><defs></defs></svg><rect width="395.52" height="139.60647868582225" fill="none" stroke="none" visibility="hidden"></rect></g></svg></g></svg>